<svg width="32" height="32" viewBox="-0.5 -0.5 16 16" fill="none" xmlns="http://www.w3.org/2000/svg">
  <desc>Box Streamline Icon: https://streamlinehq.com</desc>
  <g>
    <circle cx="7.5" cy="7.5" r="8" fill="white"/>
    <path d="M13.74025 6.25c-0.0231875 -0.81941875 -0.10112499999999999 -1.34184375 -0.363625 -1.7876625 -0.373375 -0.63406875 -1.04575 -0.986925 -2.3905625 -1.6926375l-1.25 -0.65596875C8.6388125 1.5379125 8.0901875 1.25 7.5 1.25c-0.5901875 0 -1.1388125 0.2879125 -2.2360687500000003 0.86373125l-1.25 0.65596875C2.66914375 3.4754125 1.9967437499999998 3.8282687500000003 1.623375 4.4623375 1.25 5.096406249999999 1.25 5.8854187499999995 1.25 7.4634374999999995v0.07312500000000001c0 1.5779999999999998 0 2.3670625000000003 0.373375 3.001125 0.37336874999999997 0.6340625 1.04576875 0.986875 2.39055625 1.692625l1.25 0.6559375000000001C6.3611875 13.4620625 6.9098125 13.75 7.5 13.75c0.5901875 0 1.1388125 -0.2879375 2.2360625 -0.8637499999999999l1.25 -0.6559375000000001c1.3448125 -0.70575 2.0171875 -1.0585625 2.3905625 -1.692625 0.2625 -0.445875 0.34043749999999995 -0.9682499999999999 0.363625 -1.7876875" stroke="#1447e6" stroke-linecap="round" stroke-width="1"/>
    <path d="m13.125 4.6875 -2.5 1.25M7.5 7.5 1.875 4.6875m5.625 2.8125v5.9375m0 -5.9375 2.8125 -1.40625c0.1220625 -0.06101875 0.3125 -0.15625 0.3125 -0.15625m0 0V8.125m0 -2.1875 -5.9375 -3.125" stroke="#1447e6" stroke-linecap="round" stroke-width="1"/>
  </g>
</svg>